<svg width="347" height="12" viewBox="0 0 347 12" fill="none" xmlns="http://www.w3.org/2000/svg">
<line x1="5.83899" y1="5.80258" x2="346.041" y2="5.80255" stroke="#9F9F9F" stroke-width="1.8128"/>
<line x1="5.83899" y1="5.80258" x2="94.0619" y2="5.80258" stroke="#3C5408" stroke-width="1.8128"/>
<circle cx="5.53663" cy="6.70838" r="4.0788" fill="white" stroke="#3C5408" stroke-width="0.302133"/>
<path d="M5.44898 9.0239L5.56738 9.12254L5.66364 9.0022L8.62076 5.30545L8.71512 5.18749L8.59716 5.09313L8.06299 4.66579L7.94505 4.57143L7.85067 4.68936L5.42538 7.71999L3.75771 6.33047L3.64166 6.23378L3.54495 6.34982L3.10666 6.87578L3.00994 6.99184L3.12601 7.08855L5.44898 9.0239ZM0.853581 6.70951C0.853581 5.38735 1.37881 4.11935 2.31371 3.18444C3.24862 2.24953 4.51662 1.72431 5.83878 1.72431C7.16094 1.72431 8.42895 2.24953 9.36385 3.18444C10.2988 4.11935 10.824 5.38735 10.824 6.70951C10.824 8.03167 10.2988 9.29967 9.36385 10.2346C8.42895 11.1695 7.16094 11.6947 5.83878 11.6947C4.51663 11.6947 3.24862 11.1695 2.31371 10.2346C1.37881 9.29967 0.853581 8.03167 0.853581 6.70951Z" fill="#3C5408" stroke="#3C5408" stroke-width="0.302133"/>
<circle cx="89.8319" cy="5.80311" r="4.0788" fill="white" stroke="#3C5408" stroke-width="0.302133"/>
<path d="M89.7441 8.11862L89.8625 8.21727L89.9588 8.09692L92.9159 4.40018L93.0103 4.28222L92.8923 4.18785L92.3582 3.76052L92.2402 3.66616L92.1458 3.78409L89.7205 6.81472L88.0529 5.4252L87.9368 5.32851L87.8401 5.44455L87.4018 5.9705L87.3051 6.08657L87.4212 6.18328L89.7441 8.11862ZM85.1487 5.80424C85.1487 4.48208 85.674 3.21407 86.6089 2.27917C87.5438 1.34426 88.8118 0.819035 90.1339 0.819035C91.4561 0.819035 92.7241 1.34426 93.659 2.27917C94.5939 3.21407 95.1192 4.48208 95.1192 5.80424C95.1192 7.12639 94.5939 8.3944 93.659 9.32931C92.7241 10.2642 91.4561 10.7894 90.1339 10.7894C88.8118 10.7894 87.5438 10.2642 86.6089 9.32931C85.674 8.3944 85.1487 7.12639 85.1487 5.80424Z" fill="#3C5408" stroke="#3C5408" stroke-width="0.302133"/>
</svg>
