<svg width="68" height="68" viewBox="0 0 68 68" fill="none" xmlns="http://www.w3.org/2000/svg">
<path d="M18.2 51.5C18.4 51.6 18.7 51.5 18.9 51.3C19 51.1 18.9 50.8 18.7 50.6C17.2 49.8 16.7 48 17.5 46.5C18.3 45 20.1 44.5 21.6 45.3C21.8 45.4 22.1 45.3 22.3 45.1C22.4 44.9 22.3 44.6 22.1 44.4C20.2 43.3 17.7 44.1 16.7 46C16.2 46.9 16.1 48 16.4 49C16.6 50.1 17.3 51 18.2 51.5ZM45.9 44.2C45.7 44.3 45.6 44.6 45.7 44.9C45.8 45.1 46.1 45.2 46.4 45.1C47.8 44.3 49.7 44.8 50.5 46.3C51.2999 47.7 50.7999 49.6 49.2999 50.4C49.0999 50.5 49 50.8 49.0999 51.1C49.1999 51.3 49.5 51.4 49.7999 51.3C51.7 50.2 52.4 47.8 51.4 45.9C50.2 43.8 47.8 43.1 45.9 44.2Z" fill="#9E9E9E"/>
<path d="M66 32.4C66 20.8 51.9 11.6 34 11.6C16.1 11.6 2 20.7 2 32.4C2 38.1 5.5 43.5 11.7 47.4C11.5 52.3 15.4 56.3 20.2 56.3C24.9 56.3 28.7 52.5 28.7 47.8C28.7 43.1 24.9 39.3 20.2 39.3C18 39.3 16.1 40.1 14.6 41.5C10.7 38.9 8.6 35.7 8.6 32.5C8.6 24.8 20.3 18.3 34.1 18.3C47.9 18.3 59.6 24.8 59.6 32.5C59.6 35.7 57.5 38.9 53.7 41.5C52.2 40.1 50.2 39.2 47.9 39.2C43.2 39.2 39.4 43 39.4 47.7C39.4 52.4 43.2 56.2 47.9 56.2C52.6 56.2 56.4 52.4 56.4 47.7C56.4 47.6 56.4 47.6 56.4 47.5C62.5 43.6 66 38.1 66 32.4ZM26.7 47.8C26.7 51.4 23.8 54.3 20.2 54.3C16.6 54.3 13.7 51.4 13.7 47.8C13.7 46.1 14.3 44.6 15.3 43.5C16.5 42.2 18.2 41.3 20.1 41.3C23.8 41.3 26.7 44.2 26.7 47.8ZM47.8 54.2C44.2 54.2 41.3 51.3 41.3 47.7C41.3 44.1 44.2 41.2 47.8 41.2C51.4 41.2 54.3 44.1 54.3 47.7C54.3 51.3 51.4 54.2 47.8 54.2ZM55.9 45.3C55.7 44.5 55.3 43.7 54.8 43C59.1 40.1 61.4 36.3 61.4 32.5C61.4 23.7 48.8 16.3 33.9 16.3C19.1 16.2 6.5 23.6 6.5 32.4C6.5 36.3 8.8 40 13.1 43C12.6 43.7 12.2 44.5 12 45.3C6.9 41.8 3.9 37.2 3.9 32.5C3.9 22 17.1 13.7 33.9 13.7C50.7 13.7 63.9 21.9 63.9 32.5C64 37.2 61.1 41.8 55.9 45.3Z" fill="#9E9E9E"/>
</svg>
