<svg width="65" height="64" viewBox="0 0 65 64" fill="none" xmlns="http://www.w3.org/2000/svg">
<path d="M21.8 26.45V24.826C22.393 24.6197 22.9057 24.2315 23.2649 23.7166C23.6241 23.2017 23.8116 22.5865 23.8005 21.9588C23.7894 21.3311 23.5804 20.7229 23.2032 20.221C22.826 19.7191 22.2999 19.3492 21.7 19.164V10.808C22.366 10.5719 22.927 10.1077 23.2835 9.49756C23.64 8.88747 23.7691 8.17088 23.6479 7.47472C23.5267 6.77856 23.163 6.14778 22.6212 5.69409C22.0795 5.24041 21.3946 4.99311 20.688 4.996H18.688C18.4228 4.996 18.1684 5.10135 17.9809 5.28889C17.7934 5.47643 17.688 5.73078 17.688 5.996C17.688 6.26121 17.7934 6.51557 17.9809 6.7031C18.1684 6.89064 18.4228 6.996 18.688 6.996H20.688C20.8193 6.996 20.9494 7.02186 21.0707 7.07212C21.192 7.12237 21.3022 7.19603 21.3951 7.28889C21.488 7.38175 21.5616 7.49199 21.6119 7.61331C21.6621 7.73464 21.688 7.86467 21.688 7.996C21.688 8.12732 21.6621 8.25735 21.6119 8.37868C21.5616 8.50001 21.488 8.61025 21.3951 8.7031C21.3022 8.79596 21.192 8.86962 21.0707 8.91988C20.9494 8.97013 20.8193 8.996 20.688 8.996C20.4228 8.996 20.1684 9.10135 19.9809 9.28889C19.7934 9.47643 19.688 9.73078 19.688 9.996C19.688 10.016 19.7 10.034 19.7 10.056V19.226C19.1317 19.4479 18.645 19.8385 18.3054 20.3453C17.9658 20.8522 17.7896 21.4508 17.8005 22.0608C17.8114 22.6708 18.0089 23.2628 18.3663 23.7572C18.7238 24.2515 19.2241 24.6245 19.8 24.826V26.45L11.3 31.36C11.148 31.4478 11.0217 31.574 10.934 31.726C10.8462 31.878 10.8 32.0505 10.8 32.226V42.618C10.8 42.7935 10.8462 42.966 10.934 43.118C11.0217 43.27 11.148 43.3962 11.3 43.484L12.8 44.35V49.19C12.1328 49.4259 11.5704 49.8901 11.2124 50.5005C10.8543 51.1109 10.7235 51.8282 10.8432 52.5257C10.9629 53.2232 11.3253 53.856 11.8663 54.3121C12.4074 54.7682 13.0923 55.0184 13.8 55.0184C14.5077 55.0184 15.1926 54.7682 15.7337 54.3121C16.2747 53.856 16.6371 53.2232 16.7568 52.5257C16.8765 51.8282 16.7457 51.1109 16.3876 50.5005C16.0295 49.8901 15.4672 49.4259 14.8 49.19V45.506L19.8 48.392V53.004C19.8064 53.0637 19.8184 53.1226 19.836 53.18C19.1627 53.4085 18.5925 53.8686 18.2269 54.4784C17.8614 55.0882 17.7243 55.8079 17.84 56.5094C17.9558 57.2109 18.3169 57.8484 18.8591 58.3084C19.4012 58.7684 20.089 59.0209 20.8 59.0209C21.511 59.0209 22.1988 58.7684 22.7409 58.3084C23.283 57.8484 23.6442 57.2109 23.76 56.5094C23.8757 55.8079 23.7386 55.0882 23.373 54.4784C23.0075 53.8686 22.4373 53.4085 21.764 53.18C21.7816 53.1226 21.7936 53.0637 21.8 53.004V48.392L26.8 45.506V49.19C26.1328 49.4259 25.5704 49.8901 25.2124 50.5005C24.8543 51.1109 24.7235 51.8282 24.8432 52.5257C24.9629 53.2232 25.3253 53.856 25.8663 54.3121C26.4074 54.7682 27.0923 55.0184 27.8 55.0184C28.5077 55.0184 29.1926 54.7682 29.7337 54.3121C30.2747 53.856 30.6371 53.2232 30.7568 52.5257C30.8765 51.8282 30.7457 51.1109 30.3876 50.5005C30.0295 49.8901 29.4672 49.4259 28.8 49.19V44.35L30.3 43.484C30.452 43.3962 30.5782 43.27 30.666 43.118C30.7538 42.966 30.8 42.7935 30.8 42.618V32.226C30.8 32.0505 30.7538 31.878 30.666 31.726C30.5782 31.574 30.452 31.4478 30.3 31.36L21.8 26.45ZM13.8 53.004C13.6022 53.004 13.4089 52.9453 13.2444 52.8355C13.08 52.7256 12.9518 52.5694 12.8761 52.3867C12.8004 52.204 12.7806 52.0029 12.8192 51.8089C12.8578 51.6149 12.953 51.4367 13.0929 51.2969C13.2327 51.157 13.4109 51.0618 13.6049 51.0232C13.7989 50.9846 14 51.0044 14.1827 51.0801C14.3654 51.1558 14.5216 51.284 14.6315 51.4484C14.7413 51.6129 14.8 51.8062 14.8 52.004C14.8 52.2692 14.6946 52.5236 14.5071 52.7111C14.3196 52.8986 14.0652 53.004 13.8 53.004ZM27.8 53.004C27.6022 53.004 27.4089 52.9453 27.2444 52.8355C27.08 52.7256 26.9518 52.5694 26.8761 52.3867C26.8004 52.204 26.7806 52.0029 26.8192 51.8089C26.8578 51.6149 26.953 51.4367 27.0929 51.2969C27.2327 51.157 27.4109 51.0618 27.6049 51.0232C27.7989 50.9846 28 51.0044 28.1827 51.0801C28.3654 51.1558 28.5216 51.284 28.6315 51.4484C28.7413 51.6129 28.8 51.8062 28.8 52.004C28.8 52.2692 28.6946 52.5236 28.5071 52.7111C28.3196 52.8986 28.0652 53.004 27.8 53.004ZM20.804 23.01H20.796C20.5395 23.013 20.2919 22.9166 20.105 22.741C19.918 22.5654 19.8064 22.3242 19.7935 22.0681C19.7805 21.812 19.8673 21.5608 20.0356 21.3672C20.2038 21.1737 20.4405 21.0528 20.696 21.03L20.7 21.032C20.735 21.0274 20.7697 21.0207 20.804 21.012C21.0612 21.0235 21.3041 21.1338 21.482 21.3199C21.66 21.506 21.7593 21.7535 21.7593 22.011C21.7593 22.2685 21.66 22.516 21.482 22.7021C21.3041 22.8882 21.0612 22.9985 20.804 23.01ZM20.8 57.004C20.6022 57.004 20.4089 56.9453 20.2444 56.8355C20.08 56.7256 19.9518 56.5694 19.8761 56.3867C19.8004 56.204 19.7806 56.0029 19.8192 55.8089C19.8578 55.6149 19.953 55.4367 20.0929 55.2969C20.2327 55.157 20.4109 55.0618 20.6049 55.0232C20.7989 54.9846 21 55.0044 21.1827 55.0801C21.3654 55.1558 21.5216 55.284 21.6315 55.4484C21.7413 55.6129 21.8 55.8062 21.8 56.004C21.8 56.2692 21.6946 56.5236 21.5071 56.7111C21.3196 56.8986 21.0652 57.004 20.8 57.004ZM28.8 42.04L20.8 46.66L12.8 42.04V32.8L20.8 28.182L28.8 32.802V42.04Z" fill="#9E9E9E"/>
<path d="M20.3 33.34L17.3 35.074C17.148 35.1618 17.0217 35.288 16.934 35.44C16.8462 35.592 16.8 35.7645 16.8 35.94V39.404C16.8 39.5795 16.8462 39.752 16.934 39.904C17.0217 40.056 17.148 40.1822 17.3 40.27L20.3 42.002C20.452 42.0898 20.6245 42.136 20.8 42.136C20.9755 42.136 21.148 42.0898 21.3 42.002L24.3 40.27C24.452 40.1822 24.5782 40.056 24.666 39.904C24.7538 39.752 24.8 39.5795 24.8 39.404V35.94C24.8 35.7645 24.7538 35.592 24.666 35.44C24.5782 35.288 24.452 35.1618 24.3 35.074L21.3 33.34C21.1478 33.2526 20.9754 33.2066 20.8 33.2066C20.6245 33.2066 20.4521 33.2526 20.3 33.34ZM22.8 36.516V38.826L20.8 39.982L18.8 38.826V36.516L20.8 35.362L22.8 36.516ZM54.3 43.482C54.452 43.3942 54.5782 43.268 54.666 43.116C54.7538 42.964 54.8 42.7915 54.8 42.616V32.224C54.8 32.0485 54.7538 31.876 54.666 31.724C54.5782 31.572 54.452 31.4458 54.3 31.358L45.8 26.45V24.826C46.393 24.6197 46.9057 24.2315 47.2649 23.7166C47.6241 23.2017 47.8116 22.5865 47.8005 21.9588C47.7894 21.3311 47.5804 20.7229 47.2032 20.221C46.826 19.7191 46.2999 19.3492 45.7 19.164V10.808C46.366 10.5719 46.927 10.1077 47.2835 9.49756C47.64 8.88747 47.7691 8.17088 47.6479 7.47472C47.5267 6.77856 47.163 6.14778 46.6212 5.69409C46.0795 5.24041 45.3946 4.99311 44.688 4.996H42.688C42.4228 4.996 42.1684 5.10135 41.9809 5.28889C41.7933 5.47643 41.688 5.73078 41.688 5.996C41.688 6.26121 41.7933 6.51557 41.9809 6.7031C42.1684 6.89064 42.4228 6.996 42.688 6.996H44.688C44.9532 6.996 45.2076 7.10135 45.3951 7.28889C45.5826 7.47643 45.688 7.73078 45.688 7.996C45.688 8.26121 45.5826 8.51557 45.3951 8.7031C45.2076 8.89064 44.9532 8.996 44.688 8.996C44.4228 8.996 44.1684 9.10135 43.9809 9.28889C43.7933 9.47643 43.688 9.73078 43.688 9.996C43.688 10.016 43.7 10.034 43.7 10.056V19.226C43.1317 19.4479 42.645 19.8385 42.3054 20.3453C41.9658 20.8522 41.7896 21.4508 41.8005 22.0608C41.8114 22.6708 42.0089 23.2628 42.3663 23.7572C42.7238 24.2515 43.2241 24.6245 43.8 24.826V26.45L35.3 31.358C35.148 31.4458 35.0217 31.572 34.934 31.724C34.8462 31.876 34.8 32.0485 34.8 32.224V42.616C34.8 42.7915 34.8462 42.964 34.934 43.116C35.0217 43.268 35.148 43.3942 35.3 43.482L36.8 44.348V49.188C36.1328 49.4239 35.5704 49.8881 35.2124 50.4985C34.8543 51.1089 34.7235 51.8262 34.8432 52.5237C34.9629 53.2212 35.3253 53.854 35.8663 54.3101C36.4074 54.7662 37.0923 55.0164 37.8 55.0164C38.5077 55.0164 39.1926 54.7662 39.7336 54.3101C40.2747 53.854 40.6371 53.2212 40.7568 52.5237C40.8765 51.8262 40.7457 51.1089 40.3876 50.4985C40.0295 49.8881 39.4672 49.4239 38.8 49.188V45.504L43.8 48.39V53.002C43.8064 53.0617 43.8184 53.1206 43.836 53.178C43.1627 53.4065 42.5925 53.8666 42.2269 54.4764C41.8614 55.0862 41.7243 55.8059 41.84 56.5074C41.9558 57.2089 42.3169 57.8464 42.8591 58.3064C43.4012 58.7664 44.089 59.0189 44.8 59.0189C45.511 59.0189 46.1988 58.7664 46.7409 58.3064C47.283 57.8464 47.6442 57.2089 47.7599 56.5074C47.8757 55.8059 47.7386 55.0862 47.373 54.4764C47.0075 53.8666 46.4372 53.4065 45.764 53.178C45.7815 53.1206 45.7936 53.0617 45.8 53.002V48.39L50.8 45.504V49.188C50.1328 49.4239 49.5704 49.8881 49.2124 50.4985C48.8543 51.1089 48.7235 51.8262 48.8432 52.5237C48.9629 53.2212 49.3253 53.854 49.8663 54.3101C50.4074 54.7662 51.0923 55.0164 51.8 55.0164C52.5077 55.0164 53.1926 54.7662 53.7336 54.3101C54.2747 53.854 54.6371 53.2212 54.7568 52.5237C54.8765 51.8262 54.7457 51.1089 54.3876 50.4985C54.0295 49.8881 53.4672 49.4239 52.8 49.188V44.348L54.3 43.482ZM37.8 53.004C37.6022 53.004 37.4089 52.9453 37.2444 52.8355C37.08 52.7256 36.9518 52.5694 36.8761 52.3867C36.8004 52.204 36.7806 52.0029 36.8192 51.8089C36.8578 51.6149 36.953 51.4367 37.0929 51.2969C37.2327 51.157 37.4109 51.0618 37.6049 51.0232C37.7989 50.9846 37.9999 51.0044 38.1827 51.0801C38.3654 51.1558 38.5216 51.284 38.6315 51.4484C38.7413 51.6129 38.8 51.8062 38.8 52.004C38.8 52.2692 38.6946 52.5236 38.5071 52.7111C38.3196 52.8986 38.0652 53.004 37.8 53.004ZM51.8 53.004C51.6022 53.004 51.4089 52.9453 51.2444 52.8355C51.08 52.7256 50.9518 52.5694 50.8761 52.3867C50.8004 52.204 50.7806 52.0029 50.8192 51.8089C50.8578 51.6149 50.953 51.4367 51.0929 51.2969C51.2327 51.157 51.4109 51.0618 51.6049 51.0232C51.7989 50.9846 51.9999 51.0044 52.1827 51.0801C52.3654 51.1558 52.5216 51.284 52.6315 51.4484C52.7413 51.6129 52.8 51.8062 52.8 52.004C52.8 52.2692 52.6946 52.5236 52.5071 52.7111C52.3196 52.8986 52.0652 53.004 51.8 53.004ZM44.804 23.01H44.796C44.5395 23.013 44.2919 22.9166 44.105 22.741C43.918 22.5654 43.8064 22.3242 43.7935 22.0681C43.7805 21.812 43.8673 21.5608 44.0356 21.3672C44.2038 21.1737 44.4405 21.0528 44.696 21.03L44.7 21.032C44.735 21.0274 44.7697 21.0207 44.804 21.012C45.0612 21.0235 45.3041 21.1338 45.482 21.3199C45.66 21.506 45.7593 21.7535 45.7593 22.011C45.7593 22.2685 45.66 22.516 45.482 22.7021C45.3041 22.8882 45.0612 22.9985 44.804 23.01ZM36.8 32.8L44.8 28.182L52.8 32.802V42.04L44.8 46.66L36.8 42.04V32.8ZM44.8 57.004C44.6022 57.004 44.4089 56.9453 44.2444 56.8355C44.08 56.7256 43.9518 56.5694 43.8761 56.3867C43.8004 56.204 43.7806 56.0029 43.8192 55.8089C43.8578 55.6149 43.953 55.4367 44.0929 55.2969C44.2327 55.157 44.4109 55.0618 44.6049 55.0232C44.7989 54.9846 44.9999 55.0044 45.1827 55.0801C45.3654 55.1558 45.5216 55.284 45.6315 55.4484C45.7413 55.6129 45.8 55.8062 45.8 56.004C45.8 56.2692 45.6946 56.5236 45.5071 56.7111C45.3196 56.8986 45.0652 57.004 44.8 57.004Z" fill="#9E9E9E"/>
<path d="M45.3 42.002L48.3 40.27C48.452 40.1823 48.5782 40.056 48.666 39.904C48.7538 39.752 48.8 39.5796 48.8 39.404V35.94C48.8 35.7645 48.7538 35.5921 48.666 35.44C48.5782 35.288 48.452 35.1618 48.3 35.074L45.3 33.34C45.1478 33.2526 44.9754 33.2067 44.8 33.2067C44.6245 33.2067 44.4521 33.2526 44.3 33.34L41.3 35.074C41.148 35.1618 41.0217 35.288 40.934 35.44C40.8462 35.5921 40.8 35.7645 40.8 35.94V39.404C40.8 39.5796 40.8462 39.752 40.934 39.904C41.0217 40.056 41.148 40.1823 41.3 40.27L44.3 42.002C44.452 42.0898 44.6245 42.136 44.8 42.136C44.9755 42.136 45.148 42.0898 45.3 42.002ZM42.8 38.826V36.516L44.8 35.362L46.8 36.516V38.826L44.8 39.982L42.8 38.826Z" fill="#9E9E9E"/>
</svg>
