<svg width="68" height="60" viewBox="0 0 68 60" fill="none" xmlns="http://www.w3.org/2000/svg">
<path d="M33.9039 46.6992C31.9039 46.6992 30.2039 48.3992 30.2039 50.3992C30.2039 52.3992 31.9039 54.0992 33.9039 54.0992C35.9039 54.0992 37.6039 52.3992 37.6039 50.3992C37.6039 48.3992 35.9039 46.6992 33.9039 46.6992ZM33.9039 53.0992C32.4039 53.0992 31.2039 51.8992 31.2039 50.3992C31.2039 48.8992 32.4039 47.6992 33.9039 47.6992C35.4039 47.6992 36.6039 48.8992 36.6039 50.3992C36.6039 51.8992 35.4039 53.0992 33.9039 53.0992Z" fill="#9E9E9E"/>
<path d="M66.4031 6.09961H65.4031C65.4031 25.5996 56.3031 42.7996 43.2031 48.3996C42.3031 44.0996 38.5031 40.9996 34.0031 40.9996C29.5031 40.9996 25.7031 44.1996 24.8031 48.3996C11.5031 42.7996 2.40308 25.5996 2.40308 6.09961H1.40308C1.40308 26.0996 10.8031 43.6996 24.5031 49.3996C24.5031 49.6996 24.4031 50.0996 24.4031 50.3996C24.4031 55.5996 28.6031 59.8996 33.9031 59.8996C39.1031 59.8996 43.3031 55.6996 43.3031 50.3996C43.3031 50.0996 43.3031 49.6996 43.2031 49.3996C56.9031 43.6996 66.4031 26.0996 66.4031 6.09961ZM33.9031 57.8996C29.8031 57.8996 26.4031 54.5996 26.4031 50.3996C26.4031 46.1996 29.7031 42.8996 33.9031 42.8996C38.1031 42.8996 41.3031 46.1996 41.3031 50.3996C41.3031 54.5996 38.0031 57.8996 33.9031 57.8996Z" fill="#9E9E9E"/>
</svg>
