<svg width="65" height="64" viewBox="0 0 65 64" fill="none" xmlns="http://www.w3.org/2000/svg">
<path d="M51.8999 32C51.8989 28.9055 51.1608 25.8558 49.7465 23.1034C48.3323 20.351 46.2827 17.9751 43.7674 16.1725L42.1749 7.375C42.0285 6.56811 41.6033 5.83827 40.9737 5.31282C40.3441 4.78738 39.55 4.49971 38.7299 4.5H26.0699C25.2498 4.49971 24.4557 4.78738 23.8261 5.31282C23.1965 5.83827 22.7713 6.56811 22.6249 7.375L21.0324 16.1725C18.5164 17.9743 16.4661 20.35 15.0517 23.1026C13.6373 25.8552 12.8995 28.9053 12.8995 32C12.8995 35.0947 13.6373 38.1448 15.0517 40.8974C16.4661 43.6499 18.5164 46.0257 21.0324 47.8275L22.6249 56.625C22.7713 57.4319 23.1965 58.1617 23.8261 58.6872C24.4557 59.2126 25.2498 59.5003 26.0699 59.5H38.7299C39.55 59.5003 40.3441 59.2126 40.9737 58.6872C41.6033 58.1617 42.0285 57.4319 42.1749 56.625L43.7674 47.8275C46.2827 46.0249 48.3323 43.649 49.7465 40.8966C51.1608 38.1442 51.8989 35.0945 51.8999 32ZM25.5774 7.91C25.5987 7.79352 25.6607 7.68838 25.7522 7.6133C25.8438 7.53822 25.959 7.49807 26.0774 7.5H38.7374C38.8558 7.49807 38.971 7.53822 39.0626 7.6133C39.1542 7.68838 39.2161 7.79352 39.2374 7.91L40.3774 14.2075C37.8737 13.082 35.1599 12.5001 32.4149 12.5001C29.6699 12.5001 26.9561 13.082 24.4524 14.2075L25.5774 7.91ZM39.2224 56.09C39.2011 56.2065 39.1392 56.3116 39.0476 56.3867C38.956 56.4618 38.8408 56.5019 38.7224 56.5H26.0699C25.9515 56.5019 25.8363 56.4618 25.7447 56.3867C25.6532 56.3116 25.5912 56.2065 25.5699 56.09L24.4299 49.7925C26.9336 50.918 29.6474 51.4999 32.3924 51.4999C35.1374 51.4999 37.8512 50.918 40.3549 49.7925L39.2224 56.09ZM32.3999 48.5C29.1365 48.5 25.9464 47.5323 23.233 45.7192C20.5196 43.9062 18.4047 41.3293 17.1559 38.3143C15.907 35.2993 15.5803 31.9817 16.217 28.781C16.8536 25.5803 18.4251 22.6403 20.7326 20.3327C23.0402 18.0252 25.9802 16.4537 29.1809 15.817C32.3816 15.1804 35.6992 15.5071 38.7142 16.756C41.7292 18.0048 44.3061 20.1197 46.1192 22.8331C47.9322 25.5465 48.8999 28.7366 48.8999 32C48.8946 36.3744 47.1545 40.5682 44.0613 43.6614C40.9681 46.7546 36.7744 48.4947 32.3999 48.5ZM43.8999 32C43.8999 32.3978 43.7419 32.7794 43.4606 33.0607C43.1793 33.342 42.7977 33.5 42.3999 33.5H32.3999C32.0021 33.5 31.6206 33.342 31.3392 33.0607C31.0579 32.7794 30.8999 32.3978 30.8999 32V22C30.8999 21.6022 31.0579 21.2206 31.3392 20.9393C31.6206 20.658 32.0021 20.5 32.3999 20.5C32.7977 20.5 33.1793 20.658 33.4606 20.9393C33.7419 21.2206 33.8999 21.6022 33.8999 22V30.5H42.3999C42.7977 30.5 43.1793 30.658 43.4606 30.9393C43.7419 31.2206 43.8999 31.6022 43.8999 32Z" fill="#8E8E8E"/>
</svg>
